<svg width="26" height="14" viewBox="0 0 26 14" fill="none" xmlns="http://www.w3.org/2000/svg">
<rect x="2.11816" y="2.32031" width="22" height="9.67113" fill="white"/>
<path fill-rule="evenodd" clip-rule="evenodd" d="M24.3302 1C24.6689 1 25.0076 1.3378 24.9237 1.6756V11.8946C24.9237 12.2324 24.6689 12.5702 24.2455 12.5702H1.97764C1.63897 12.5702 1.30029 12.3169 1.30029 11.8946V2.858C1.30029 2.5202 1.5543 2.1824 1.97764 2.1824H15.948V1.6756C15.948 1.3378 16.202 1 16.6253 1H24.3302ZM10.0218 3.6182H9.34444C9.09043 3.6182 8.83643 3.8715 8.83643 4.1249V8.2632C8.83643 8.4343 8.83643 8.6901 8.92109 8.7699L11.2918 11.1338C11.4424 11.2846 11.7936 11.3014 11.8698 11.3033L11.8845 11.3035C11.8845 11.3035 12.3078 11.3035 12.4772 11.1338L15.0172 8.7699C15.1019 8.6854 15.1019 8.5165 15.1019 8.3476V4.2093C15.1019 3.956 14.8479 3.7026 14.5939 3.7026H13.9174C13.6625 3.7026 13.4085 3.956 13.4085 4.2093V8.0098L11.9692 9.4447L10.5298 8.0098V4.1249C10.5298 3.8715 10.2758 3.6182 10.0218 3.6182ZM3.92511 3.6182H3.24776C2.99375 3.6182 2.73975 3.8715 2.73975 4.1249V10.7968C2.73975 11.0501 2.99375 11.3035 3.24776 11.3035H7.31186C7.56587 11.3035 7.81987 11.0501 7.81987 10.7968V10.1212C7.81987 9.8669 7.56587 9.6144 7.31186 9.6144H4.43312V4.1249C4.43312 3.8715 4.17912 3.6182 3.92511 3.6182ZM23.0608 2.3506H17.8114C17.5574 2.3506 17.3042 2.6039 17.3042 2.8573V7.1645C17.3042 7.4178 17.5574 7.6712 17.8114 7.6712H21.8755V9.6137H17.8114C17.5574 9.6137 17.3042 9.8662 17.3042 10.1204V10.796C17.3042 11.0494 17.5574 11.3027 17.8114 11.3027H23.0608C23.3148 11.3027 23.5688 11.0494 23.5688 10.796V6.4888C23.5688 6.2355 23.3148 5.9821 23.0608 5.9821H18.9976V4.1241H23.0608C23.3148 4.1241 23.5688 3.8708 23.5688 3.6174V2.8573C23.5688 2.6039 23.3148 2.3506 23.0608 2.3506Z" fill="#EE672A"/>
</svg>
