<svg width="26" height="14" viewBox="0 0 26 14" fill="none" xmlns="http://www.w3.org/2000/svg">
<rect x="2.11816" y="2.52588" width="22" height="9.67113" fill="white"/>
<path d="M24.3302 1.27246C24.6407 1.27246 24.9511 1.55631 24.9361 1.86381L24.9237 1.94806V12.167C24.9237 12.4742 24.7131 12.7815 24.3567 12.8348L24.2455 12.843H1.97764C1.66976 12.843 1.36187 12.633 1.30844 12.2778L1.30029 12.167V3.13046C1.30029 2.82328 1.51022 2.51618 1.86645 2.46288L1.97764 2.45477H15.948V1.94806C15.948 1.64097 16.1579 1.33388 16.5141 1.28059L16.6253 1.27246H24.3302ZM23.0608 2.70796H17.8114C17.5856 2.70796 17.3605 2.90818 17.3132 3.13057L17.3042 3.21466V11.069C17.3042 11.2939 17.5043 11.5195 17.7271 11.5669L17.8114 11.576H23.0608C23.2866 11.576 23.5124 11.3753 23.5597 11.153L23.5688 11.069V6.76196C23.5688 6.53618 23.3681 6.31119 23.1451 6.26398L23.0608 6.25497H18.9976V4.39706H23.0608C23.2866 4.39706 23.5124 4.19684 23.5597 3.97445L23.5688 3.89037V3.21466C23.5688 2.96136 23.3148 2.70796 23.0608 2.70796ZM10.0218 3.89056H9.34444C9.09043 3.89056 8.83643 4.14396 8.83643 4.39736V8.53596C8.83643 8.76496 8.83643 8.97097 8.92109 9.04197L11.2918 11.406C11.3994 11.5139 11.6093 11.5533 11.7482 11.5677L11.8845 11.576L12.0005 11.5697C12.1385 11.5571 12.3643 11.5193 12.4772 11.406L15.0172 9.04197C15.085 8.97477 15.0985 8.85316 15.1012 8.72068L15.1019 4.48176C15.1019 4.22836 14.8479 3.97506 14.5939 3.97506H13.9174C13.6625 3.97506 13.4085 4.22836 13.4085 4.48176V8.28196L11.9692 9.71696L10.5298 8.28196V4.39736C10.5298 4.14396 10.2758 3.89056 10.0218 3.89056ZM3.92511 3.89056H3.24776C3.02197 3.89056 2.79619 4.09078 2.74881 4.31324L2.73975 4.39736V11.069C2.73975 11.2947 2.94044 11.5197 3.16344 11.5669L3.24776 11.576H7.31186C7.53765 11.576 7.76343 11.3761 7.81081 11.1533L7.81987 11.069V10.394C7.81987 10.1673 7.61918 9.943 7.39618 9.89596L7.31186 9.88696H4.43312V4.39736C4.43312 4.14396 4.17912 3.89056 3.92511 3.89056ZM21.875 7.94396V9.88696H18.9971V7.94396H21.875Z" fill="#FF0000"/>
</svg>
