<svg width="36" height="14" viewBox="0 0 36 14" fill="none" xmlns="http://www.w3.org/2000/svg">
<rect x="2.31787" y="2.23096" width="30.7471" height="9.67113" fill="white"/>
<path d="M34.3307 1C34.6412 1 34.9516 1.28401 34.9366 1.59169L34.9242 1.67599V11.895C34.9242 12.2014 34.7136 12.5086 34.3572 12.5619L34.246 12.57H1.97813C1.67024 12.57 1.36236 12.3609 1.30892 12.0058L1.30078 11.895V2.858C1.30078 2.55073 1.5107 2.24345 1.86694 2.19012L1.97813 2.18201H15.9485V1.67599C15.9485 1.36872 16.1584 1.06146 16.5146 1.00813L16.6258 1H34.3307ZM29.6787 2.386L25.9564 7.453C25.7711 7.705 25.9512 8.06 26.2641 8.06H28.6801L28.264 10.944C28.2073 11.337 28.7143 11.545 28.9496 11.224L32.672 6.158C32.8572 5.906 32.6772 5.55 32.3643 5.55H29.9482L30.3643 2.66701C30.4211 2.27301 29.914 2.066 29.6787 2.386ZM23.0613 2.435H17.8119C17.5578 2.435 17.3047 2.689 17.3047 2.942V10.796C17.3047 11.05 17.5578 11.303 17.8119 11.303H23.0613C23.3153 11.303 23.5693 11.05 23.5693 10.796V6.489C23.5693 6.236 23.3153 5.983 23.0613 5.983H18.9981V4.125H23.0613C23.3153 4.125 23.5693 3.871 23.5693 3.618V2.942C23.5693 2.689 23.3153 2.435 23.0613 2.435ZM10.0223 3.618H9.34493C9.09092 3.618 8.83691 3.871 8.83691 4.125V8.263C8.83691 8.493 8.83691 8.698 8.92158 8.77L11.2923 11.134C11.4616 11.303 11.885 11.303 11.885 11.303C11.885 11.303 12.3083 11.303 12.4777 11.134L15.0177 8.77C15.1024 8.685 15.1024 8.51601 15.1024 8.34801V4.209C15.1024 3.956 14.8484 3.703 14.5944 3.703H13.9179C13.663 3.703 13.409 3.956 13.409 4.209V8.00999L11.9697 9.44501L10.5303 8.00999V4.125C10.5303 3.871 10.2763 3.618 10.0223 3.618ZM3.9256 3.618H3.24825C3.02246 3.618 2.79668 3.8179 2.74929 4.04071L2.74023 4.125V10.797C2.74023 11.0219 2.94093 11.2468 3.16393 11.294L3.24825 11.303H7.31235C7.53814 11.303 7.76392 11.1031 7.8113 10.881L7.82036 10.797V10.121C7.82036 9.89522 7.61967 9.67024 7.39667 9.62303L7.31235 9.614H4.43361V4.125C4.43361 3.871 4.1796 3.618 3.9256 3.618ZM21.8755 7.672V9.614H18.9976V7.672H21.8755Z" fill="#FF0000"/>
</svg>
